# xmcd
#
# Track frame offsets: 
#        150
#        17702
#        29780
#        47608
#        62924
#        79194
#        97872
#        115176
#        133456
#        147976
#        160970
#
# Disc length: 2371 seconds
#
# Revision: 0
# Processed by: cddbd v1.5.2PL0 Copyright (c) Steve Scherf et al.
# Submitted via: ExactAudioCopy v0.99pb5
#
DISCID=9a09410b
DTITLE=Tracy Lawrwnce - For The Love
DYEAR=2007
DGENRE=Country
TTITLE0=Find Out Who Your Friends Are
TTITLE1=Just Like Her
TTITLE2=You Can't Hide Redneck
TTITLE3=For The Love
TTITLE4=As Easy As Our Blessings
TTITLE5=Speed Of Flight
TTITLE6=Rock And A Soft Place
TTITLE7=Til I Was A Daddy Too
TTITLE8=You're Why God Made Me
TTITLE9=Just Like That
TTITLE10=Find Out Who Your Friends Are
EXTD=
EXTT0=
EXTT1=
EXTT2=
EXTT3=
EXTT4=
EXTT5=
EXTT6=
EXTT7=
EXTT8=
EXTT9=
EXTT10=
PLAYORDER=
